<svg width="12" height="16" viewBox="0 0 12 16" fill="none" xmlns="http://www.w3.org/2000/svg">
<rect x="0.5" y="5.42307" width="11" height="10.0769" fill="white" stroke="#666666"/>
<path d="M3.19903 4.02324C3.14839 4.02324 3.09779 4.01366 3.05914 3.99449L2.45785 3.69594C2.38059 3.65758 2.38059 3.59539 2.45785 3.55705C2.53511 3.51871 2.66032 3.51871 2.73759 3.55705L3.19903 3.78616L4.46222 3.15898C4.53948 3.12063 4.66469 3.12063 4.74196 3.15898C4.81922 3.19734 4.81922 3.25952 4.74196 3.29787L3.33892 3.99449C3.30027 4.01366 3.24967 4.02324 3.19903 4.02324Z" fill="black"/>
<path d="M9.41684 4.37051H6.00469C5.90355 4.37051 5.82153 4.30909 5.82153 4.23334C5.82153 4.1576 5.90355 4.09618 6.00469 4.09618H9.41684C9.51802 4.09618 9.6 4.1576 9.6 4.23334C9.6 4.30909 9.51798 4.37051 9.41684 4.37051Z" fill="black"/>
<path d="M7.57955 3.58424H6.00469C5.90355 3.58424 5.82153 3.52282 5.82153 3.44707C5.82153 3.37133 5.90355 3.30991 6.00469 3.30991H7.57955C7.68073 3.30991 7.76271 3.37133 7.76271 3.44707C7.76271 3.52282 7.68073 3.58424 7.57955 3.58424Z" fill="black"/>
<path d="M3.13986 6.34313C3.09297 6.34313 3.04612 6.32975 3.01033 6.30294L2.45356 5.88598C2.38202 5.83243 2.38202 5.74558 2.45356 5.69203C2.5251 5.63845 2.64104 5.63845 2.71259 5.69203L3.13986 6.01198L4.30953 5.13603C4.38107 5.08248 4.49701 5.08248 4.56856 5.13603C4.6401 5.18961 4.6401 5.27647 4.56856 5.33002L3.2694 6.30294C3.23361 6.32975 3.18675 6.34313 3.13986 6.34313Z" fill="black"/>
<path d="M9.41684 6.33616H6.00469C5.90355 6.33616 5.82153 6.27477 5.82153 6.199C5.82153 6.12322 5.90355 6.06183 6.00469 6.06183H9.41684C9.51802 6.06183 9.6 6.12322 9.6 6.199C9.6 6.27477 9.51798 6.33616 9.41684 6.33616Z" fill="black"/>
<path d="M3.13986 8.30877C3.09129 8.30877 3.04469 8.29434 3.01033 8.26858L2.45356 7.85162C2.38202 7.79807 2.38202 7.71122 2.45356 7.65767C2.5251 7.60409 2.64104 7.60409 2.71259 7.65767L3.13986 7.97763L4.30953 7.10168C4.38107 7.0481 4.49701 7.0481 4.56856 7.10168C4.6401 7.15523 4.6401 7.24208 4.56856 7.29563L3.2694 8.26858C3.23503 8.29432 3.18844 8.30877 3.13986 8.30877Z" fill="black"/>
<path d="M9.41684 8.3018H6.00469C5.90355 8.3018 5.82153 8.2404 5.82153 8.16463C5.82153 8.08886 5.90355 8.02747 6.00469 8.02747H9.41684C9.51802 8.02747 9.6 8.08886 9.6 8.16463C9.6 8.2404 9.51798 8.3018 9.41684 8.3018Z" fill="black"/>
<path d="M7.57955 7.5155H6.00469C5.90355 7.5155 5.82153 7.4541 5.82153 7.37833C5.82153 7.30256 5.90355 7.24117 6.00469 7.24117H7.57955C7.68073 7.24117 7.76271 7.30256 7.76271 7.37833C7.76271 7.4541 7.68073 7.5155 7.57955 7.5155Z" fill="black"/>
<path d="M3.13986 10.2744C3.09129 10.2744 3.04469 10.26 3.01033 10.2342L2.45356 9.81723C2.38202 9.76368 2.38202 9.67683 2.45356 9.62325C2.52514 9.56973 2.64108 9.5697 2.71259 9.62328L3.13986 9.94326L4.30953 9.06731C4.38107 9.01374 4.49701 9.01374 4.56856 9.06731C4.6401 9.12086 4.6401 9.20772 4.56856 9.26127L3.2694 10.2342C3.23503 10.26 3.18844 10.2744 3.13986 10.2744Z" fill="black"/>
<path d="M9.41684 10.2674H6.00469C5.90355 10.2674 5.82153 10.206 5.82153 10.1302C5.82153 10.0545 5.90355 9.99307 6.00469 9.99307H9.41684C9.51802 9.99307 9.6 10.0545 9.6 10.1302C9.6 10.206 9.51798 10.2674 9.41684 10.2674Z" fill="black"/>
<path d="M7.57955 9.48114H6.00469C5.90355 9.48114 5.82153 9.41974 5.82153 9.34397C5.82153 9.2682 5.90355 9.2068 6.00469 9.2068H7.57955C7.68073 9.2068 7.76271 9.2682 7.76271 9.34397C7.76271 9.41974 7.68073 9.48114 7.57955 9.48114Z" fill="black"/>
<path d="M3.36977 1.89469C3.29211 1.89469 3.22914 1.84783 3.22914 1.79004C3.22914 1.73225 3.29211 1.68539 3.36977 1.68539C3.74945 1.68539 4.05835 1.45551 4.05835 1.17295C4.05835 0.890397 3.74945 0.66052 3.36977 0.66052C2.99008 0.66052 2.68115 0.890397 2.68115 1.17295C2.68115 1.23074 2.61818 1.27761 2.54053 1.27761C2.46287 1.27761 2.3999 1.23074 2.3999 1.17295C2.3999 0.774987 2.83497 0.451218 3.36977 0.451218C3.90453 0.451218 4.3396 0.774987 4.3396 1.17295C4.3396 1.57092 3.90453 1.89469 3.36977 1.89469Z" fill="#666666"/>
<path d="M5.01524 1.89465C4.93759 1.89465 4.87462 1.84779 4.87462 1.79C4.87462 1.73221 4.93759 1.68535 5.01524 1.68535C5.39493 1.68535 5.70383 1.45547 5.70383 1.17291C5.70383 0.890357 5.39493 0.660459 5.01524 0.660459C4.63556 0.660459 4.32666 0.890336 4.32666 1.17289C4.32666 1.23068 4.26369 1.27755 4.18604 1.27755C4.10838 1.27755 4.04541 1.23068 4.04541 1.17289C4.04541 0.774926 4.48048 0.451157 5.01524 0.451157C5.55001 0.451157 5.98508 0.774926 5.98508 1.17289C5.98508 1.57086 5.55001 1.89465 5.01524 1.89465Z" fill="#666666"/>
<path d="M6.66075 1.89469C6.58307 1.89469 6.52013 1.84783 6.52013 1.79004C6.52013 1.73225 6.58307 1.68539 6.66075 1.68539C7.04044 1.68539 7.34934 1.45551 7.34934 1.17295C7.34934 0.890397 7.04044 0.66052 6.66075 0.66052C6.28106 0.66052 5.97217 0.890397 5.97217 1.17295C5.97217 1.23074 5.9092 1.27761 5.83154 1.27761C5.75389 1.27761 5.69092 1.23074 5.69092 1.17295C5.69092 0.774987 6.12598 0.451218 6.66078 0.451218C7.19558 0.451218 7.63062 0.774987 7.63062 1.17295C7.63062 1.57092 7.19555 1.89469 6.66075 1.89469Z" fill="#666666"/>
<path d="M8.30626 1.89469C8.22858 1.89469 8.16564 1.84783 8.16564 1.79004C8.16564 1.73225 8.22858 1.68539 8.30626 1.68539C8.68595 1.68539 8.99484 1.45551 8.99484 1.17295C8.99484 0.890397 8.68595 0.66052 8.30626 0.66052C7.92657 0.66052 7.61768 0.890397 7.61768 1.17295C7.61768 1.23074 7.55473 1.27761 7.47705 1.27761C7.39937 1.27761 7.33643 1.23074 7.33643 1.17295C7.33643 0.774987 7.77149 0.451218 8.30626 0.451218C8.84103 0.451218 9.27609 0.774987 9.27609 1.17295C9.27609 1.57092 8.84103 1.89469 8.30626 1.89469Z" fill="#666666"/>
</svg>
