<svg width="118" height="118" viewBox="0 0 118 118" fill="none" xmlns="http://www.w3.org/2000/svg">
<path d="M59.0373 0.99998C70.5086 1.00736 81.7201 4.41622 91.2541 10.7955C100.788 17.1747 108.216 26.2379 112.599 36.8388C116.982 47.4398 118.123 59.1024 115.878 70.3518C113.633 81.6013 108.102 91.9323 99.9858 100.039C91.8691 108.145 81.5309 113.662 70.2786 115.893C59.0263 118.123 47.3651 116.967 36.7699 112.571C26.1746 108.174 17.121 100.734 10.754 91.192C4.38704 81.6498 0.992618 70.4339 1 58.9626C1.0099 43.5801 7.13009 28.8315 18.0142 17.9614C28.8983 7.09127 43.6548 0.990078 59.0373 0.99998ZM58.9662 111.476C69.345 111.483 79.4927 108.412 88.1261 102.651C96.7595 96.8905 103.491 88.6991 107.469 79.1129C111.447 69.5267 112.493 58.9762 110.474 48.7955C108.456 38.6148 103.464 29.2612 96.1301 21.9176C88.7959 14.5739 79.4488 9.57004 69.2707 7.53869C59.0926 5.50733 48.5407 6.53975 38.9494 10.5054C29.3581 14.471 21.1581 21.1917 15.3864 29.8177C9.61469 38.4436 6.53049 48.5874 6.52381 58.9662C6.51485 72.8837 12.035 86.2348 21.8698 96.0823C31.7047 105.93 45.0487 111.467 58.9662 111.476Z" fill="#4C934C" fill-opacity="0.42"/>
<path d="M45.21 28.6101C45.9413 28.6136 46.6414 28.9071 47.1566 29.4261L74.7579 57.0629C75.2719 57.5807 75.5602 58.2809 75.5597 59.0105C75.5593 59.7402 75.2701 60.44 74.7553 60.9572L47.1185 88.5584C46.5899 89.0106 45.9101 89.2466 45.215 89.2193C44.5199 89.192 43.8607 88.9034 43.3692 88.4112C42.8776 87.919 42.5899 87.2594 42.5635 86.5643C42.5371 85.8692 42.7739 85.1897 43.2268 84.6616L68.9014 59.0063L43.2598 33.3179C42.8761 32.9314 42.6153 32.4401 42.51 31.9058C42.4047 31.3715 42.4597 30.818 42.6682 30.3149C42.8766 29.8118 43.2291 29.3816 43.6813 29.0782C44.1336 28.7749 44.6654 28.612 45.21 28.6101Z" fill="#53A548" fill-opacity="0.53"/>
</svg>
