<svg width="12" height="12" viewBox="0 0 12 12" fill="none" xmlns="http://www.w3.org/2000/svg">
<path d="M5.39072 10.4062C4.69366 10.406 4.0066 10.2404 3.38597 9.92308C2.76535 9.60571 2.22888 9.14563 1.82063 8.58064C1.41237 8.01564 1.14399 7.36184 1.03753 6.67296C0.931073 5.98407 0.98957 5.27976 1.20822 4.61788C1.42687 3.956 1.79943 3.35544 2.2953 2.86553C2.79116 2.37562 3.39619 2.01035 4.06066 1.79972C4.72514 1.58909 5.43011 1.53912 6.11765 1.6539C6.8052 1.76868 7.4557 2.04495 8.01572 2.46C8.09067 2.5209 8.13923 2.60838 8.15129 2.7042C8.16336 2.80002 8.13798 2.89679 8.08047 2.97437C8.02295 3.05195 7.93771 3.10435 7.84252 3.12065C7.74733 3.13695 7.64953 3.1159 7.56947 3.06188C6.90847 2.57113 6.10126 2.31769 5.27837 2.34255C4.45549 2.36741 3.66505 2.66912 3.03488 3.19888C2.40471 3.72864 1.97166 4.45548 1.80576 5.26185C1.63987 6.06822 1.75082 6.90698 2.12068 7.64248C2.49054 8.37798 3.09769 8.96721 3.84393 9.3149C4.59017 9.66258 5.43187 9.74838 6.23291 9.55842C7.03396 9.36847 7.74751 8.91386 8.25817 8.26812C8.76883 7.62238 9.04675 6.82326 9.04697 6C9.04643 5.80719 9.03076 5.61473 9.0001 5.42438C8.99246 5.37513 8.9946 5.32486 9.0064 5.27644C9.01819 5.22803 9.03941 5.18241 9.06883 5.14219C9.09826 5.10197 9.13531 5.06794 9.17789 5.04204C9.22047 5.01614 9.26773 4.99888 9.31697 4.99125C9.36622 4.98362 9.41648 4.98576 9.4649 4.99755C9.51332 5.00935 9.55894 5.03056 9.59916 5.05998C9.63938 5.08941 9.67341 5.12647 9.69931 5.16904C9.72521 5.21162 9.74246 5.25888 9.7501 5.30813C9.78361 5.53719 9.79928 5.76851 9.79697 6C9.79598 7.16831 9.33143 8.28848 8.50531 9.11459C7.6792 9.94071 6.55903 10.4053 5.39072 10.4062Z" fill="#666666"/>
<path d="M5.85943 7.40624C5.76013 7.40582 5.66506 7.36604 5.59505 7.29562L3.8138 5.51437C3.75237 5.44263 3.72027 5.35035 3.72391 5.25597C3.72756 5.16159 3.76668 5.07207 3.83347 5.00528C3.90025 4.9385 3.98978 4.89937 4.08416 4.89573C4.17854 4.89208 4.27082 4.92418 4.34255 4.98562L5.85943 6.50062L10.3763 1.98562C10.448 1.92418 10.5403 1.89208 10.6347 1.89573C10.7291 1.89937 10.8186 1.9385 10.8854 2.00528C10.9522 2.07207 10.9913 2.16159 10.9949 2.25597C10.9986 2.35035 10.9665 2.44263 10.9051 2.51437L6.1238 7.29562C6.0538 7.36604 5.95873 7.40582 5.85943 7.40624Z" fill="#666666"/>
</svg>
